<mxfile host="app.diagrams.net" modified="2024-06-13T05:38:32.370Z" agent="Mozilla/5.0 (Windows NT 10.0; Win64; x64) AppleWebKit/537.36 (KHTML, like Gecko) Chrome/125.0.0.0 Safari/537.36" etag="TzoARYDaFhi03Rzg4Ht3" version="24.5.4" type="github">
  <diagram id="C5RBs43oDa-KdzZeNtuy" name="Page-1">
    <mxGraphModel dx="4924" dy="3300" grid="1" gridSize="10" guides="1" tooltips="1" connect="1" arrows="1" fold="1" page="1" pageScale="1" pageWidth="827" pageHeight="1169" background="#ffffff" math="0" shadow="0">
      <root>
        <mxCell id="WIyWlLk6GJQsqaUBKTNV-0" />
        <mxCell id="WIyWlLk6GJQsqaUBKTNV-1" parent="WIyWlLk6GJQsqaUBKTNV-0" />
        <mxCell id="DSE0VVEkv3fst9EGCnOD-87" value="" style="swimlane;startSize=0;align=center;verticalAlign=middle;fontFamily=Helvetica;fontSize=11;labelBackgroundColor=default;resizable=1;movable=1;rotatable=1;deletable=1;editable=1;locked=0;connectable=1;swimlaneLine=0;sketch=1;curveFitting=1;jiggle=2;rounded=1;strokeColor=none;fillColor=default;fillStyle=solid;swimlaneFillColor=default;" vertex="1" parent="WIyWlLk6GJQsqaUBKTNV-1">
          <mxGeometry x="-827" y="-600" width="2747" height="1700" as="geometry" />
        </mxCell>
        <mxCell id="DSE0VVEkv3fst9EGCnOD-71" value="" style="edgeStyle=orthogonalEdgeStyle;rounded=0;orthogonalLoop=1;jettySize=auto;html=1;fontFamily=Helvetica;fontSize=11;fontColor=default;labelBackgroundColor=default;resizable=0;" edge="1" parent="DSE0VVEkv3fst9EGCnOD-87" source="WIyWlLk6GJQsqaUBKTNV-3">
          <mxGeometry relative="1" as="geometry">
            <mxPoint x="1672" y="430" as="targetPoint" />
          </mxGeometry>
        </mxCell>
        <mxCell id="WIyWlLk6GJQsqaUBKTNV-3" value="数据编排预览" style="rounded=1;whiteSpace=wrap;html=1;fontSize=12;glass=0;strokeWidth=1;shadow=0;" parent="DSE0VVEkv3fst9EGCnOD-87" vertex="1">
          <mxGeometry x="1612" y="350" width="120" height="40" as="geometry" />
        </mxCell>
        <mxCell id="DSE0VVEkv3fst9EGCnOD-64" value="" style="edgeStyle=orthogonalEdgeStyle;rounded=0;orthogonalLoop=1;jettySize=auto;html=1;fontFamily=Helvetica;fontSize=11;fontColor=default;labelBackgroundColor=default;resizable=0;" edge="1" parent="DSE0VVEkv3fst9EGCnOD-87" target="DSE0VVEkv3fst9EGCnOD-63">
          <mxGeometry relative="1" as="geometry">
            <mxPoint x="1672" y="690" as="sourcePoint" />
          </mxGeometry>
        </mxCell>
        <mxCell id="DSE0VVEkv3fst9EGCnOD-65" value="是，转换参数格式" style="edgeLabel;align=center;verticalAlign=middle;resizable=0;points=[];fontFamily=Helvetica;fontSize=11;fontColor=default;labelBackgroundColor=default;fillColor=none;gradientColor=none;" vertex="1" connectable="0" parent="DSE0VVEkv3fst9EGCnOD-64">
          <mxGeometry x="-0.2545" relative="1" as="geometry">
            <mxPoint y="10" as="offset" />
          </mxGeometry>
        </mxCell>
        <mxCell id="DSE0VVEkv3fst9EGCnOD-17" value="" style="edgeStyle=orthogonalEdgeStyle;rounded=0;orthogonalLoop=1;jettySize=auto;html=1;" edge="1" parent="DSE0VVEkv3fst9EGCnOD-87" source="DSE0VVEkv3fst9EGCnOD-1" target="DSE0VVEkv3fst9EGCnOD-16">
          <mxGeometry relative="1" as="geometry" />
        </mxCell>
        <mxCell id="DSE0VVEkv3fst9EGCnOD-1" value="数据源对接三方接口" style="rounded=1;whiteSpace=wrap;html=1;fontSize=12;glass=0;strokeWidth=1;shadow=0;" vertex="1" parent="DSE0VVEkv3fst9EGCnOD-87">
          <mxGeometry x="981" y="350" width="120" height="40" as="geometry" />
        </mxCell>
        <mxCell id="DSE0VVEkv3fst9EGCnOD-11" value="数据编排对接开发流程" style="text;align=center;verticalAlign=middle;resizable=0;points=[];autosize=1;strokeColor=none;fillColor=none;" vertex="1" parent="DSE0VVEkv3fst9EGCnOD-87">
          <mxGeometry x="971" y="300" width="140" height="30" as="geometry" />
        </mxCell>
        <mxCell id="DSE0VVEkv3fst9EGCnOD-12" value="数据编排预览流程" style="text;align=center;verticalAlign=middle;resizable=0;points=[];autosize=1;strokeColor=none;fillColor=none;" vertex="1" parent="DSE0VVEkv3fst9EGCnOD-87">
          <mxGeometry x="1612" y="300" width="120" height="30" as="geometry" />
        </mxCell>
        <mxCell id="DSE0VVEkv3fst9EGCnOD-26" value="" style="edgeStyle=orthogonalEdgeStyle;rounded=0;orthogonalLoop=1;jettySize=auto;html=1;" edge="1" parent="DSE0VVEkv3fst9EGCnOD-87" source="DSE0VVEkv3fst9EGCnOD-16" target="DSE0VVEkv3fst9EGCnOD-19">
          <mxGeometry relative="1" as="geometry" />
        </mxCell>
        <mxCell id="DSE0VVEkv3fst9EGCnOD-16" value="根据领域模型确定业务模型和服务" style="rounded=1;whiteSpace=wrap;html=1;fontSize=12;glass=0;strokeWidth=1;shadow=0;" vertex="1" parent="DSE0VVEkv3fst9EGCnOD-87">
          <mxGeometry x="981" y="440" width="120" height="40" as="geometry" />
        </mxCell>
        <mxCell id="DSE0VVEkv3fst9EGCnOD-21" value="" style="edgeStyle=orthogonalEdgeStyle;rounded=0;orthogonalLoop=1;jettySize=auto;html=1;" edge="1" parent="DSE0VVEkv3fst9EGCnOD-87">
          <mxGeometry relative="1" as="geometry">
            <mxPoint x="1106" y="559.5" as="sourcePoint" />
            <mxPoint x="1217" y="559.5" as="targetPoint" />
          </mxGeometry>
        </mxCell>
        <mxCell id="DSE0VVEkv3fst9EGCnOD-22" value="否，调用数据管理接口" style="edgeLabel;align=center;verticalAlign=middle;resizable=0;points=[];fontSize=9;" vertex="1" connectable="0" parent="DSE0VVEkv3fst9EGCnOD-21">
          <mxGeometry x="-0.3042" y="-1" relative="1" as="geometry">
            <mxPoint x="16" y="-21" as="offset" />
          </mxGeometry>
        </mxCell>
        <mxCell id="DSE0VVEkv3fst9EGCnOD-24" value="" style="edgeStyle=orthogonalEdgeStyle;rounded=0;orthogonalLoop=1;jettySize=auto;html=1;entryX=0.5;entryY=0;entryDx=0;entryDy=0;" edge="1" parent="DSE0VVEkv3fst9EGCnOD-87" source="DSE0VVEkv3fst9EGCnOD-19" target="DSE0VVEkv3fst9EGCnOD-75">
          <mxGeometry relative="1" as="geometry">
            <mxPoint x="1041" y="670" as="targetPoint" />
          </mxGeometry>
        </mxCell>
        <mxCell id="DSE0VVEkv3fst9EGCnOD-25" value="是" style="edgeLabel;html=1;align=center;verticalAlign=middle;resizable=0;points=[];" vertex="1" connectable="0" parent="DSE0VVEkv3fst9EGCnOD-24">
          <mxGeometry x="-0.1968" relative="1" as="geometry">
            <mxPoint as="offset" />
          </mxGeometry>
        </mxCell>
        <mxCell id="DSE0VVEkv3fst9EGCnOD-19" value="业务模型、服务是否存在" style="rhombus;whiteSpace=wrap;html=1;shadow=0;fontFamily=Helvetica;fontSize=10;align=center;strokeWidth=1;spacing=6;spacingTop=-4;" vertex="1" parent="DSE0VVEkv3fst9EGCnOD-87">
          <mxGeometry x="976" y="520" width="130" height="80" as="geometry" />
        </mxCell>
        <mxCell id="DSE0VVEkv3fst9EGCnOD-20" value="创建对应的业务模型或服务" style="whiteSpace=wrap;html=1;shadow=0;strokeWidth=1;spacing=6;spacingTop=-4;" vertex="1" parent="DSE0VVEkv3fst9EGCnOD-87">
          <mxGeometry x="1217" y="530" width="120" height="60" as="geometry" />
        </mxCell>
        <mxCell id="DSE0VVEkv3fst9EGCnOD-28" value="注册该服务到数据编排（public.data_arrange_data_source表）&amp;nbsp; 出入参、枚举等" style="whiteSpace=wrap;html=1;shadow=0;strokeWidth=1;spacing=6;spacingTop=-4;" vertex="1" parent="DSE0VVEkv3fst9EGCnOD-87">
          <mxGeometry x="922.75" y="1370" width="236" height="70" as="geometry" />
        </mxCell>
        <mxCell id="DSE0VVEkv3fst9EGCnOD-83" value="" style="edgeStyle=orthogonalEdgeStyle;rounded=0;orthogonalLoop=1;jettySize=auto;html=1;fontFamily=Helvetica;fontSize=11;fontColor=default;labelBackgroundColor=default;resizable=0;" edge="1" parent="DSE0VVEkv3fst9EGCnOD-87" source="DSE0VVEkv3fst9EGCnOD-32" target="DSE0VVEkv3fst9EGCnOD-28">
          <mxGeometry relative="1" as="geometry" />
        </mxCell>
        <mxCell id="DSE0VVEkv3fst9EGCnOD-84" value="&lt;span style=&quot;font-size: 9px;&quot;&gt;调用数据编排站点接口&lt;/span&gt;" style="edgeLabel;html=1;align=center;verticalAlign=middle;resizable=0;points=[];fontFamily=Helvetica;fontSize=11;fontColor=default;labelBackgroundColor=default;fillColor=none;gradientColor=none;" vertex="1" connectable="0" parent="DSE0VVEkv3fst9EGCnOD-83">
          <mxGeometry x="-0.1573" y="-2" relative="1" as="geometry">
            <mxPoint x="2" as="offset" />
          </mxGeometry>
        </mxCell>
        <mxCell id="DSE0VVEkv3fst9EGCnOD-32" value="在数据管理已定义了消费端，需要根据该标准事件定义表结构和创建表" style="whiteSpace=wrap;html=1;shadow=0;strokeWidth=1;spacing=6;spacingTop=-4;" vertex="1" parent="DSE0VVEkv3fst9EGCnOD-87">
          <mxGeometry x="939" y="1200" width="204" height="60" as="geometry" />
        </mxCell>
        <mxCell id="DSE0VVEkv3fst9EGCnOD-39" value="" style="edgeStyle=orthogonalEdgeStyle;rounded=0;orthogonalLoop=1;jettySize=auto;html=1;fontFamily=Helvetica;fontSize=11;fontColor=default;labelBackgroundColor=default;resizable=0;" edge="1" parent="DSE0VVEkv3fst9EGCnOD-87" source="DSE0VVEkv3fst9EGCnOD-36" target="DSE0VVEkv3fst9EGCnOD-38">
          <mxGeometry relative="1" as="geometry" />
        </mxCell>
        <mxCell id="DSE0VVEkv3fst9EGCnOD-40" value="是" style="edgeLabel;html=1;align=center;verticalAlign=middle;resizable=0;points=[];fontFamily=Helvetica;fontSize=11;fontColor=default;labelBackgroundColor=default;fillColor=none;gradientColor=none;" vertex="1" connectable="0" parent="DSE0VVEkv3fst9EGCnOD-39">
          <mxGeometry x="-0.2889" y="1" relative="1" as="geometry">
            <mxPoint as="offset" />
          </mxGeometry>
        </mxCell>
        <mxCell id="DSE0VVEkv3fst9EGCnOD-45" value="" style="edgeStyle=orthogonalEdgeStyle;rounded=0;orthogonalLoop=1;jettySize=auto;html=1;fontFamily=Helvetica;fontSize=11;fontColor=default;labelBackgroundColor=default;resizable=0;" edge="1" parent="DSE0VVEkv3fst9EGCnOD-87" source="DSE0VVEkv3fst9EGCnOD-36" target="DSE0VVEkv3fst9EGCnOD-44">
          <mxGeometry relative="1" as="geometry" />
        </mxCell>
        <mxCell id="DSE0VVEkv3fst9EGCnOD-46" value="否" style="edgeLabel;html=1;align=center;verticalAlign=middle;resizable=0;points=[];fontFamily=Helvetica;fontSize=11;fontColor=default;labelBackgroundColor=default;fillColor=none;gradientColor=none;" vertex="1" connectable="0" parent="DSE0VVEkv3fst9EGCnOD-45">
          <mxGeometry x="-0.0339" y="1" relative="1" as="geometry">
            <mxPoint as="offset" />
          </mxGeometry>
        </mxCell>
        <mxCell id="DSE0VVEkv3fst9EGCnOD-36" value="需要对接存储" style="rhombus;whiteSpace=wrap;html=1;shadow=0;strokeWidth=1;spacing=6;spacingTop=-4;" vertex="1" parent="DSE0VVEkv3fst9EGCnOD-87">
          <mxGeometry x="943" y="790" width="196" height="80" as="geometry" />
        </mxCell>
        <mxCell id="DSE0VVEkv3fst9EGCnOD-61" value="" style="edgeStyle=orthogonalEdgeStyle;rounded=0;orthogonalLoop=1;jettySize=auto;html=1;fontFamily=Helvetica;fontSize=11;fontColor=default;labelBackgroundColor=default;resizable=0;" edge="1" parent="DSE0VVEkv3fst9EGCnOD-87" source="DSE0VVEkv3fst9EGCnOD-38" target="DSE0VVEkv3fst9EGCnOD-60">
          <mxGeometry relative="1" as="geometry" />
        </mxCell>
        <mxCell id="DSE0VVEkv3fst9EGCnOD-38" value="使用业务模型作为topic、服务名称作为事件类型，定义标准外部事件" style="whiteSpace=wrap;html=1;shadow=0;strokeWidth=1;spacing=6;spacingTop=-4;" vertex="1" parent="DSE0VVEkv3fst9EGCnOD-87">
          <mxGeometry x="904.5" y="910" width="273" height="100" as="geometry" />
        </mxCell>
        <mxCell id="DSE0VVEkv3fst9EGCnOD-44" value="实现三方接口的对接" style="whiteSpace=wrap;html=1;shadow=0;strokeWidth=1;spacing=6;spacingTop=-4;" vertex="1" parent="DSE0VVEkv3fst9EGCnOD-87">
          <mxGeometry x="1261" y="960" width="130" height="60" as="geometry" />
        </mxCell>
        <mxCell id="DSE0VVEkv3fst9EGCnOD-52" style="edgeStyle=orthogonalEdgeStyle;rounded=0;orthogonalLoop=1;jettySize=auto;html=1;entryX=0.995;entryY=0.629;entryDx=0;entryDy=0;entryPerimeter=0;fontFamily=Helvetica;fontSize=11;fontColor=default;labelBackgroundColor=default;resizable=0;" edge="1" parent="DSE0VVEkv3fst9EGCnOD-87" source="DSE0VVEkv3fst9EGCnOD-44" target="DSE0VVEkv3fst9EGCnOD-28">
          <mxGeometry relative="1" as="geometry">
            <Array as="points">
              <mxPoint x="1326" y="1405" />
              <mxPoint x="1152" y="1405" />
            </Array>
          </mxGeometry>
        </mxCell>
        <mxCell id="DSE0VVEkv3fst9EGCnOD-53" value="&lt;span style=&quot;font-size: 9px;&quot;&gt;调用数据编排站点接口（需额外注册接口地址）&lt;/span&gt;" style="edgeLabel;html=1;align=center;verticalAlign=middle;resizable=0;points=[];fontFamily=Helvetica;fontSize=11;fontColor=default;labelBackgroundColor=default;fillColor=none;gradientColor=none;" vertex="1" connectable="0" parent="DSE0VVEkv3fst9EGCnOD-52">
          <mxGeometry x="-0.0698" y="1" relative="1" as="geometry">
            <mxPoint as="offset" />
          </mxGeometry>
        </mxCell>
        <mxCell id="DSE0VVEkv3fst9EGCnOD-59" value="&lt;h1 style=&quot;margin-top: 0px;&quot;&gt;&lt;font style=&quot;font-size: 14px;&quot;&gt;数据库：data_manage&lt;/font&gt;&lt;/h1&gt;&lt;p&gt;&lt;span style=&quot;font-size: 12px; text-align: center; background-color: rgb(251, 251, 251);&quot;&gt;业务建模：&lt;br&gt;public.business_model_category&lt;/span&gt;&lt;br style=&quot;font-size: 12px; text-align: center; background-color: rgb(251, 251, 251);&quot;&gt;&lt;span style=&quot;font-size: 12px; text-align: center; background-color: rgb(251, 251, 251);&quot;&gt;服务：&lt;br&gt;public.service_category&lt;/span&gt;&lt;br style=&quot;font-size: 12px; text-align: center; background-color: rgb(251, 251, 251);&quot;&gt;&lt;span style=&quot;text-wrap: nowrap; background-color: rgb(251, 251, 251); color: rgba(0, 0, 0, 0); font-family: monospace; font-size: 0px;&quot;&gt;fu%3CmxGraphModel%3E%3Croot%3E%3CmxCell%20id%3D%220%22%2F%3E%3CmxCell%20id%3D%221%22%20parent%3D%220%22%2F%3E%3CmxCell%20id%3D%222%22%20value%3D%22%E5%88%9B%E5%BB%BA%E5%AF%B9%E5%BA%94%E7%9A%84%E4%B8%9A%E5%8A%A1%E6%A8%A1%E5%9E%8B%E6%88%96%E6%9C%8D%E5%8A%A1%22%20style%3D%22whiteSpace%3Dwrap%3Bhtml%3D1%3Bshadow%3D0%3BstrokeWidth%3D1%3Bspacing%3D6%3BspacingTop%3D-4%3B%22%20vertex%3D%221%22%20parent%3D%221%22%3E%3CmxGeometry%20x%3D%22370%22%20y%3D%2270%22%20width%3D%22120%22%20height%3D%2260%22%20as%3D%22geometry%22%2F%3E%3C%2FmxCell%3E%3C%2Froot%3E%3C%2FmxGraphModel%3Efufuaasoidjasoda&lt;/span&gt;&lt;br&gt;&lt;/p&gt;" style="text;html=1;whiteSpace=wrap;overflow=hidden;rounded=0;fontFamily=Helvetica;fontSize=11;fontColor=default;labelBackgroundColor=default;resizable=0;" vertex="1" parent="DSE0VVEkv3fst9EGCnOD-87">
          <mxGeometry x="777" y="500" width="180" height="120" as="geometry" />
        </mxCell>
        <mxCell id="DSE0VVEkv3fst9EGCnOD-62" value="" style="edgeStyle=orthogonalEdgeStyle;rounded=0;orthogonalLoop=1;jettySize=auto;html=1;fontFamily=Helvetica;fontSize=11;fontColor=default;labelBackgroundColor=default;resizable=0;" edge="1" parent="DSE0VVEkv3fst9EGCnOD-87" source="DSE0VVEkv3fst9EGCnOD-60" target="DSE0VVEkv3fst9EGCnOD-32">
          <mxGeometry relative="1" as="geometry" />
        </mxCell>
        <mxCell id="DSE0VVEkv3fst9EGCnOD-60" value="并在该接口中定义参数转换逻辑，并推送该消息。（如三方未提供推送功能，则需要在对接三方接口时，设置定时拉取数据逻辑）" style="whiteSpace=wrap;html=1;shadow=0;strokeWidth=1;spacing=6;spacingTop=-4;" vertex="1" parent="DSE0VVEkv3fst9EGCnOD-87">
          <mxGeometry x="904.5" y="1060" width="272.5" height="85" as="geometry" />
        </mxCell>
        <mxCell id="DSE0VVEkv3fst9EGCnOD-67" value="" style="edgeStyle=orthogonalEdgeStyle;rounded=0;orthogonalLoop=1;jettySize=auto;html=1;fontFamily=Helvetica;fontSize=11;fontColor=default;labelBackgroundColor=default;resizable=0;" edge="1" parent="DSE0VVEkv3fst9EGCnOD-87" source="DSE0VVEkv3fst9EGCnOD-63" target="DSE0VVEkv3fst9EGCnOD-66">
          <mxGeometry relative="1" as="geometry" />
        </mxCell>
        <mxCell id="DSE0VVEkv3fst9EGCnOD-63" value="调用数据管理的统一分页接口" style="whiteSpace=wrap;html=1;shadow=0;strokeWidth=1;spacing=6;spacingTop=-4;" vertex="1" parent="DSE0VVEkv3fst9EGCnOD-87">
          <mxGeometry x="1582" y="770" width="180" height="60" as="geometry" />
        </mxCell>
        <mxCell id="DSE0VVEkv3fst9EGCnOD-66" value="查询存储好的数据" style="whiteSpace=wrap;html=1;shadow=0;strokeWidth=1;spacing=6;spacingTop=-4;" vertex="1" parent="DSE0VVEkv3fst9EGCnOD-87">
          <mxGeometry x="1612" y="900" width="120" height="60" as="geometry" />
        </mxCell>
        <mxCell id="DSE0VVEkv3fst9EGCnOD-68" value="查询三方接口，返回信息" style="whiteSpace=wrap;html=1;shadow=0;strokeWidth=1;spacing=6;spacingTop=-4;" vertex="1" parent="DSE0VVEkv3fst9EGCnOD-87">
          <mxGeometry x="1852" y="610" width="200" height="60" as="geometry" />
        </mxCell>
        <mxCell id="DSE0VVEkv3fst9EGCnOD-80" value="" style="edgeStyle=orthogonalEdgeStyle;rounded=0;orthogonalLoop=1;jettySize=auto;html=1;fontFamily=Helvetica;fontSize=11;fontColor=default;labelBackgroundColor=default;resizable=0;" edge="1" parent="DSE0VVEkv3fst9EGCnOD-87" source="DSE0VVEkv3fst9EGCnOD-74" target="DSE0VVEkv3fst9EGCnOD-68">
          <mxGeometry relative="1" as="geometry" />
        </mxCell>
        <mxCell id="DSE0VVEkv3fst9EGCnOD-82" value="否" style="edgeLabel;html=1;align=center;verticalAlign=middle;resizable=0;points=[];fontFamily=Helvetica;fontSize=11;fontColor=default;labelBackgroundColor=default;fillColor=none;gradientColor=none;" vertex="1" connectable="0" parent="DSE0VVEkv3fst9EGCnOD-80">
          <mxGeometry x="-0.0323" y="1" relative="1" as="geometry">
            <mxPoint x="1" as="offset" />
          </mxGeometry>
        </mxCell>
        <mxCell id="DSE0VVEkv3fst9EGCnOD-74" value="该服务类型是否开启了存储规则" style="rhombus;whiteSpace=wrap;html=1;shadow=0;fontFamily=Helvetica;fontSize=12;align=center;strokeWidth=1;spacing=6;spacingTop=-4;" vertex="1" parent="DSE0VVEkv3fst9EGCnOD-87">
          <mxGeometry x="1569.5" y="580" width="205" height="120" as="geometry" />
        </mxCell>
        <mxCell id="DSE0VVEkv3fst9EGCnOD-77" value="" style="edgeStyle=orthogonalEdgeStyle;rounded=0;orthogonalLoop=1;jettySize=auto;html=1;fontFamily=Helvetica;fontSize=11;fontColor=default;labelBackgroundColor=default;resizable=0;" edge="1" parent="DSE0VVEkv3fst9EGCnOD-87" source="DSE0VVEkv3fst9EGCnOD-75" target="DSE0VVEkv3fst9EGCnOD-36">
          <mxGeometry relative="1" as="geometry" />
        </mxCell>
        <mxCell id="DSE0VVEkv3fst9EGCnOD-75" value="数据源定义该服务的标准接口" style="whiteSpace=wrap;html=1;shadow=0;strokeWidth=1;spacing=6;spacingTop=-4;" vertex="1" parent="DSE0VVEkv3fst9EGCnOD-87">
          <mxGeometry x="940.13" y="680" width="201.25" height="60" as="geometry" />
        </mxCell>
        <mxCell id="DSE0VVEkv3fst9EGCnOD-79" value="" style="edgeStyle=orthogonalEdgeStyle;rounded=0;orthogonalLoop=1;jettySize=auto;html=1;fontFamily=Helvetica;fontSize=11;fontColor=default;labelBackgroundColor=default;resizable=0;" edge="1" parent="DSE0VVEkv3fst9EGCnOD-87" source="DSE0VVEkv3fst9EGCnOD-78" target="DSE0VVEkv3fst9EGCnOD-74">
          <mxGeometry relative="1" as="geometry" />
        </mxCell>
        <mxCell id="DSE0VVEkv3fst9EGCnOD-81" value="数据源中进行判断和路由" style="edgeLabel;html=1;align=center;verticalAlign=middle;resizable=0;points=[];fontFamily=Helvetica;fontSize=11;fontColor=default;labelBackgroundColor=default;fillColor=none;gradientColor=none;" vertex="1" connectable="0" parent="DSE0VVEkv3fst9EGCnOD-79">
          <mxGeometry x="-0.1333" y="-2" relative="1" as="geometry">
            <mxPoint x="2" y="1" as="offset" />
          </mxGeometry>
        </mxCell>
        <mxCell id="DSE0VVEkv3fst9EGCnOD-78" value="根据注册的接口路径信息，查询到数据源对应的标准接口上" style="whiteSpace=wrap;html=1;shadow=0;strokeWidth=1;spacing=6;spacingTop=-4;" vertex="1" parent="DSE0VVEkv3fst9EGCnOD-87">
          <mxGeometry x="1557" y="430" width="230" height="60" as="geometry" />
        </mxCell>
      </root>
    </mxGraphModel>
  </diagram>
</mxfile>
